<?xml version="1.0" encoding="utf-8"?>
<!-- Generator: Adobe Illustrator 23.0.3, SVG Export Plug-In . SVG Version: 6.00 Build 0)  -->
<svg version="1.2" baseProfile="tiny" id="Livello_1"
	 xmlns="http://www.w3.org/2000/svg" xmlns:xlink="http://www.w3.org/1999/xlink" x="0px" y="0px" viewBox="0 0 1280 300"
	 xml:space="preserve">
<g>
	<g>
		<path fill="#1D1D1B" d="M815.96,109.6h18.49c5.58,0,9.69,1.19,12.35,3.56c2.66,2.37,3.99,6.04,3.99,11.01
			c0,4.97-1.33,8.64-3.99,11.01c-2.66,2.37-6.77,3.56-12.35,3.56h-9.28v16.6h-9.21V109.6z M834.72,131.56c2,0,3.65-0.61,4.94-1.83
			c1.28-1.22,1.93-3.07,1.93-5.55c0-2.48-0.64-4.33-1.93-5.55c-1.29-1.22-2.93-1.83-4.94-1.83h-9.54v14.77H834.72z"/>
		<path fill="#1D1D1B" d="M858.86,151.92c-3.2-2.81-4.8-6.96-4.8-12.45v-13.99c0-5.49,1.6-9.64,4.8-12.45
			c3.2-2.81,7.83-4.21,13.89-4.21c6.05,0,10.68,1.4,13.88,4.21c3.2,2.81,4.8,6.96,4.8,12.45v13.99c0,5.49-1.6,9.64-4.8,12.45
			c-3.2,2.81-7.83,4.21-13.88,4.21C866.7,156.13,862.07,154.73,858.86,151.92z M879.77,146.49c1.63-1.63,2.45-3.98,2.45-7.02v-13.99
			c0-3.05-0.82-5.39-2.45-7.02c-1.63-1.63-3.98-2.45-7.02-2.45c-3.05,0-5.39,0.82-7.03,2.45c-1.63,1.63-2.45,3.98-2.45,7.02v13.99
			c0,3.05,0.82,5.39,2.45,7.02c1.63,1.63,3.98,2.45,7.03,2.45C875.8,148.94,878.14,148.12,879.77,146.49z"/>
		<path fill="#1D1D1B" d="M900.95,151.69c-2.42-2.44-3.63-5.97-3.63-10.59v-31.5h9.21v31.5c0,2.4,0.52,4.17,1.57,5.33
			c1.05,1.16,2.66,1.73,4.83,1.73h14.64v7.19h-14.64C907.36,155.35,903.37,154.13,900.95,151.69z"/>
		<path fill="#1D1D1B" d="M934.01,151.92c-3.2-2.81-4.8-6.96-4.8-12.45v-13.99c0-5.49,1.6-9.64,4.8-12.45
			c3.2-2.81,7.83-4.21,13.89-4.21c6.05,0,10.68,1.4,13.88,4.21c3.2,2.81,4.8,6.96,4.8,12.45v13.99c0,5.49-1.6,9.64-4.8,12.45
			c-3.2,2.81-7.83,4.21-13.88,4.21C941.84,156.13,937.21,154.73,934.01,151.92z M954.92,146.49c1.63-1.63,2.45-3.98,2.45-7.02
			v-13.99c0-3.05-0.82-5.39-2.45-7.02c-1.63-1.63-3.98-2.45-7.02-2.45c-3.05,0-5.39,0.82-7.03,2.45c-1.63,1.63-2.45,3.98-2.45,7.02
			v13.99c0,3.05,0.82,5.39,2.45,7.02c1.63,1.63,3.98,2.45,7.03,2.45C950.95,148.94,953.29,148.12,954.92,146.49z"/>
		<path fill="#1D1D1B" d="M815.96,173.4h20.13c4.79,0,8.46,1.04,11.01,3.14c2.55,2.09,3.82,5.11,3.82,9.08
			c0,2.18-0.65,4.14-1.96,5.88c-1.3,1.74-3.2,2.94-5.68,3.6c2.7,0.52,4.88,1.77,6.54,3.76c1.65,1.98,2.48,4.56,2.48,7.74
			c0,3.88-1.36,6.94-4.08,9.18c-2.72,2.24-6.44,3.36-11.14,3.36h-21.11V173.4z M835.89,191.82c1.74,0,3.15-0.51,4.21-1.53
			c1.07-1.02,1.6-2.38,1.6-4.08s-0.53-3.06-1.6-4.08c-1.07-1.03-2.47-1.53-4.21-1.53h-10.72v11.23H835.89z M835.11,211.95
			c2.7,0,4.71-0.53,6.01-1.6c1.31-1.07,1.96-2.69,1.96-4.87s-0.65-3.8-1.96-4.87c-1.31-1.07-3.31-1.6-6.01-1.6h-9.93v12.94H835.11z"
			/>
		<path fill="#1D1D1B" d="M859.16,173.4h9.21v45.75h-9.21V173.4z"/>
		<path fill="#1D1D1B" d="M877.85,173.4h20.13c4.79,0,8.46,1.04,11.01,3.14c2.55,2.09,3.82,5.11,3.82,9.08
			c0,2.18-0.65,4.14-1.96,5.88c-1.3,1.74-3.2,2.94-5.68,3.6c2.7,0.52,4.88,1.77,6.54,3.76c1.65,1.98,2.48,4.56,2.48,7.74
			c0,3.88-1.36,6.94-4.08,9.18c-2.72,2.24-6.44,3.36-11.14,3.36h-21.11V173.4z M897.78,191.82c1.74,0,3.15-0.51,4.21-1.53
			c1.06-1.02,1.6-2.38,1.6-4.08s-0.53-3.06-1.6-4.08c-1.07-1.03-2.47-1.53-4.21-1.53h-10.72v11.23H897.78z M897,211.95
			c2.7,0,4.71-0.53,6.01-1.6c1.31-1.07,1.96-2.69,1.96-4.87s-0.65-3.8-1.96-4.87c-1.31-1.07-3.31-1.6-6.01-1.6h-9.93v12.94H897z"/>
		<path fill="#1D1D1B" d="M923.04,215.48c-2.42-2.44-3.63-5.97-3.63-10.59v-31.5h9.22v31.5c0,2.4,0.52,4.17,1.57,5.33
			c1.05,1.15,2.66,1.73,4.83,1.73h14.64v7.19h-14.64C929.45,219.14,925.45,217.92,923.04,215.48z"/>
		<path fill="#1D1D1B" d="M955.22,173.4h9.21v45.75h-9.21V173.4z"/>
		<path fill="#1D1D1B" d="M976.75,215.71c-3.2-2.81-4.8-6.96-4.8-12.45v-13.99c0-5.49,1.6-9.64,4.8-12.45
			c3.2-2.81,7.83-4.21,13.89-4.21c6.05,0,10.68,1.41,13.88,4.21c3.2,2.81,4.8,6.96,4.8,12.45v13.99c0,5.49-1.6,9.64-4.8,12.45
			c-3.2,2.81-7.83,4.21-13.88,4.21C984.58,219.92,979.96,218.52,976.75,215.71z M997.66,210.28c1.63-1.63,2.45-3.97,2.45-7.02
			v-13.99c0-3.05-0.82-5.39-2.45-7.02c-1.63-1.63-3.97-2.45-7.02-2.45c-3.05,0-5.39,0.82-7.03,2.45c-1.63,1.63-2.45,3.98-2.45,7.02
			v13.99c0,3.05,0.82,5.39,2.45,7.02c1.63,1.64,3.98,2.46,7.03,2.46C993.69,212.74,996.03,211.92,997.66,210.28z"/>
		<path fill="#1D1D1B" d="M1023.77,180.59h-13.79v-7.19h36.79v7.19h-13.79v38.55h-9.21V180.59z"/>
		<path fill="#1D1D1B" d="M1052.39,215.48c-2.53-2.44-3.79-5.97-3.79-10.59v-17.25c0-4.62,1.26-8.15,3.79-10.58
			c2.53-2.44,6.69-3.66,12.48-3.66h15.29v7.19h-15.29c-2.39,0-4.17,0.56-5.33,1.69c-1.15,1.14-1.73,2.92-1.73,5.36v5.03h19.47v7.19
			h-19.47v5.03c0,2.4,0.58,4.17,1.73,5.33c1.15,1.15,2.93,1.73,5.33,1.73h15.42v7.19h-15.42
			C1059.08,219.14,1054.92,217.92,1052.39,215.48z"/>
		<path fill="#1D1D1B" d="M1089.38,215.71c-3.22-2.81-4.83-6.96-4.83-12.45v-13.99c0-5.49,1.61-9.64,4.83-12.45
			c3.22-2.81,7.91-4.21,14.05-4.21c4.27,0,7.77,0.71,10.49,2.12c2.72,1.42,4.89,3.54,6.5,6.37l-6.6,4.57
			c-1.35-2.09-2.75-3.6-4.21-4.51c-1.46-0.91-3.52-1.37-6.18-1.37c-3.36,0-5.8,0.79-7.35,2.38c-1.55,1.59-2.32,3.95-2.32,7.09v13.99
			c0,3.14,0.77,5.5,2.32,7.09c1.55,1.59,4,2.39,7.35,2.39c2.88,0,5.11-0.49,6.7-1.47c1.59-0.98,3.01-2.56,4.28-4.74l6.54,4.84
			c-1.4,2.01-2.83,3.62-4.31,4.84c-1.48,1.22-3.28,2.14-5.39,2.77c-2.11,0.63-4.71,0.95-7.81,0.95
			C1097.29,219.92,1092.6,218.52,1089.38,215.71z"/>
		<path fill="#1D1D1B" d="M1152.44,208.49h-17.91l-3.07,10.65h-9.22l11.17-36.47c0.79-2.62,1.61-4.64,2.48-6.08
			c0.87-1.44,1.91-2.46,3.1-3.07c1.2-0.61,2.69-0.91,4.48-0.91c1.78,0,3.27,0.31,4.44,0.91c1.18,0.61,2.21,1.63,3.11,3.07
			c0.89,1.44,1.73,3.46,2.51,6.08l11.18,36.47h-9.21L1152.44,208.49z M1150.42,201.63l-5.49-18.82c-0.3-1.13-0.78-1.69-1.44-1.69
			s-1.14,0.56-1.44,1.69l-5.49,18.82H1150.42z"/>
		<path fill="#1D1D1B" d="M1207.01,219.14h-9.74l-3.01-10.13c-0.61-2.09-1.22-3.71-1.83-4.87c-0.61-1.15-1.44-2.04-2.48-2.65
			c-1.05-0.61-2.44-0.91-4.18-0.91h-6.6v18.56h-9.21V173.4h18.49c5.58,0,9.69,1.1,12.35,3.3c2.66,2.2,3.99,5.63,3.99,10.3
			c0,3-0.8,5.42-2.38,7.25c-1.59,1.83-3.78,3.01-6.57,3.53c2.22,0.74,3.9,2.03,5.03,3.86c1.13,1.83,2.18,4.32,3.14,7.45
			L1207.01,219.14z M1193.65,191.79c1.28-1.07,1.93-2.67,1.93-4.8c0-2.14-0.64-3.74-1.93-4.81c-1.29-1.07-2.93-1.6-4.94-1.6h-9.54
			v12.81h9.54C1190.72,193.39,1192.36,192.86,1193.65,191.79z"/>
		<path fill="#1D1D1B" d="M1212.89,173.4h9.21v45.75h-9.21V173.4z"/>
		<path fill="#1D1D1B" d="M1234.43,215.71c-3.2-2.81-4.8-6.96-4.8-12.45v-13.99c0-5.49,1.6-9.64,4.8-12.45
			c3.2-2.81,7.83-4.21,13.89-4.21c6.05,0,10.68,1.41,13.88,4.21c3.2,2.81,4.8,6.96,4.8,12.45v13.99c0,5.49-1.6,9.64-4.8,12.45
			c-3.2,2.81-7.83,4.21-13.88,4.21C1242.26,219.92,1237.63,218.52,1234.43,215.71z M1255.34,210.28c1.63-1.63,2.45-3.97,2.45-7.02
			v-13.99c0-3.05-0.82-5.39-2.45-7.02c-1.63-1.63-3.97-2.45-7.02-2.45c-3.05,0-5.39,0.82-7.03,2.45c-1.63,1.63-2.45,3.98-2.45,7.02
			v13.99c0,3.05,0.82,5.39,2.45,7.02c1.63,1.64,3.98,2.46,7.03,2.46C1251.36,212.74,1253.7,211.92,1255.34,210.28z"/>
		<path fill="#1D1D1B" d="M815.96,237.19h16.99c5.14,0,9.2,0.74,12.19,2.22c2.98,1.48,5.14,3.86,6.47,7.15
			c1.33,3.29,1.99,7.79,1.99,13.49c0,5.71-0.67,10.21-1.99,13.49c-1.33,3.29-3.49,5.68-6.47,7.16c-2.98,1.48-7.05,2.22-12.19,2.22
			h-16.99V237.19z M832.95,275.75c2.87,0,5.14-0.5,6.8-1.5c1.65-1,2.84-2.63,3.56-4.9c0.72-2.27,1.08-5.36,1.08-9.28
			c0-3.92-0.36-7.01-1.08-9.28c-0.72-2.27-1.91-3.9-3.56-4.91c-1.66-1-3.92-1.5-6.8-1.5h-7.78v31.37H832.95z"/>
		<path fill="#1D1D1B" d="M860.79,237.19H870v45.74h-9.21V237.19z"/>
		<path fill="#1D1D1B" d="M896.15,237.19h18.49c5.58,0,9.69,1.18,12.35,3.56c2.66,2.38,3.99,6.04,3.99,11.01
			c0,4.97-1.33,8.64-3.99,11.01c-2.66,2.38-6.77,3.56-12.35,3.56h-9.28v16.6h-9.21V237.19z M914.9,259.15c2,0,3.65-0.61,4.94-1.83
			c1.28-1.22,1.93-3.07,1.93-5.56c0-2.48-0.64-4.33-1.93-5.55c-1.29-1.22-2.93-1.83-4.94-1.83h-9.54v14.77H914.9z"/>
		<path fill="#1D1D1B" d="M939.05,279.5c-3.2-2.81-4.8-6.96-4.8-12.45v-13.99c0-5.49,1.6-9.64,4.8-12.45
			c3.2-2.81,7.83-4.21,13.89-4.21c6.05,0,10.68,1.41,13.88,4.21c3.2,2.81,4.8,6.96,4.8,12.45v13.99c0,5.49-1.6,9.64-4.8,12.45
			c-3.2,2.81-7.83,4.21-13.88,4.21C946.88,283.72,942.25,282.32,939.05,279.5z M959.96,274.08c1.63-1.63,2.45-3.97,2.45-7.02v-13.99
			c0-3.05-0.82-5.39-2.45-7.02c-1.63-1.63-3.97-2.45-7.02-2.45c-3.05,0-5.39,0.82-7.03,2.45c-1.63,1.63-2.45,3.98-2.45,7.02v13.99
			c0,3.05,0.82,5.39,2.45,7.02c1.63,1.64,3.98,2.46,7.03,2.46C955.98,276.53,958.32,275.72,959.96,274.08z"/>
		<path fill="#1D1D1B" d="M986.07,244.38h-13.79v-7.19h36.79v7.19h-13.79v38.55h-9.21V244.38z"/>
		<path fill="#1D1D1B" d="M1014.69,279.28c-2.53-2.44-3.79-5.97-3.79-10.59v-17.25c0-4.62,1.26-8.15,3.79-10.58
			c2.53-2.44,6.69-3.66,12.48-3.66h15.29v7.19h-15.29c-2.39,0-4.17,0.56-5.33,1.69c-1.15,1.14-1.73,2.92-1.73,5.36v5.03h19.47v7.19
			h-19.47v5.03c0,2.4,0.58,4.17,1.73,5.33c1.15,1.15,2.93,1.73,5.33,1.73h15.42v7.19h-15.42
			C1021.38,282.94,1017.21,281.71,1014.69,279.28z"/>
		<path fill="#1D1D1B" d="M1086.44,237.19v34.96c0,3.53-0.72,6.21-2.16,8.04c-1.44,1.83-3.75,2.74-6.93,2.74h-6.47l-13.46-31.17
			v31.17h-8.63v-45.74h10.39l16.6,37.9h0.13c0.74,0,1.24-0.31,1.5-0.95c0.26-0.63,0.39-1.77,0.39-3.43v-33.52H1086.44z"/>
		<path fill="#1D1D1B" d="M1126.24,275.81V283h-25.55c-3.09,0-5.45-0.66-7.06-1.99c-1.61-1.33-2.42-3.47-2.42-6.44v-4.83
			l24.44-25.36h-23.46v-7.19h33v8.29l-25.62,27.12v0.65c0,1.01,0.27,1.68,0.82,2.03c0.55,0.35,1.3,0.53,2.26,0.53H1126.24z"/>
		<path fill="#1D1D1B" d="M1157.61,272.28h-17.91l-3.07,10.65h-9.22l11.17-36.47c0.79-2.62,1.61-4.64,2.48-6.08
			c0.87-1.44,1.91-2.46,3.1-3.07c1.2-0.61,2.69-0.91,4.48-0.91c1.78,0,3.27,0.31,4.44,0.91c1.18,0.61,2.21,1.63,3.11,3.07
			c0.89,1.44,1.73,3.46,2.51,6.08l11.18,36.47h-9.22L1157.61,272.28z M1155.58,265.42l-5.49-18.82c-0.3-1.13-0.78-1.69-1.44-1.69
			c-0.65,0-1.14,0.56-1.44,1.69l-5.49,18.82H1155.58z"/>
	</g>
	<g>
		<path fill="#005CB8" d="M653.86,49.52c-81.58,36-134.83,62.18-173.44,81.72c-57.53,29.12-56.52,51.55-56.52,51.55v7.18
			c1.74-3.95,12.81-29.44,61.83-50.51c38.56-16.56,86.97-37.24,168.05-67.39l-0.04,203.76l-229.73-7.77l0.21,6.42l229.64,19.34
			l126.22-11.07V109.75L653.86,49.52z"/>
	</g>
	<path fill="#80BC00" d="M477.23,67.85c28.04-28.01,50.72-39.75,50.72-39.75l-0.25,72.24c0,0,11.26-6,30-14.81
		c16.7-7.86,29.56-13.57,29.56-13.57V32.5L530.71,7.59c0,0-30.05,23.31-57.97,53.71c-11.64,12.68-15.16,20.89-15.16,20.89v8.92
		C457.58,91.11,463,82.06,477.23,67.85z"/>
</g>
<g>
	<path fill="#2D489C" d="M70.36,291.1v-40.06c0-0.77,0-1.54,0-2.57c0-1.03,0-1.8,0.26-2.82l-18.75,35.44
		c-0.51,0.77-1.03,1.54-1.8,1.8c-0.77,0.51-1.54,0.77-2.31,0.77h-1.54c-1.03,0-1.8-0.26-2.31-0.77c-0.77-0.51-1.28-1.03-1.8-1.8
		l-19.26-35.44c0,1.03,0.26,1.8,0.26,2.82c0,0.77,0,1.8,0,2.57v40.06H70.36L70.36,291.1z"/>
	<path fill="#2D489C" d="M12.83,35.82v193.13h8.73c0.51,0,1.03,0,1.28,0c0.51,0,0.77,0,1.03,0.26c0.26,0.26,0.51,0.26,0.77,0.51
		c0.26,0.26,0.51,0.51,0.77,1.03l18.75,34.67c0.51,1.03,1.03,1.8,1.28,2.83c0.51,1.03,0.77,2.05,1.28,3.08
		c0.51-1.03,0.77-2.05,1.28-3.08c0.51-1.03,0.77-2.05,1.28-2.83l18.49-34.67c0.26-0.51,0.51-0.77,0.77-1.03
		c0.26-0.26,0.51-0.51,0.77-0.51c0.26-0.26,0.51-0.26,1.03-0.26c0.26,0,0.77,0,1.28,0h8.73v62.15h12.58v-43.92h10.79v43.92h30.56
		c-0.26,0-0.51-0.26-1.03-0.26c-1.03-0.26-2.05-0.77-3.08-1.03c-3.6-1.54-6.93-3.85-9.5-6.68s-4.62-6.16-5.91-10.02
		c-1.54-3.85-2.05-8.22-2.05-12.84c0-4.62,0.77-8.99,2.31-12.84s3.85-7.19,6.68-10.02c2.82-2.83,6.16-4.88,10.02-6.68
		c3.85-1.54,8.22-2.31,13.1-2.31c4.62,0,8.73,0.77,12.07,2.31c3.34,1.54,6.42,3.34,8.99,5.91l-3.85,5.39
		c-0.26,0.26-0.51,0.51-0.77,0.77s-0.77,0.51-1.54,0.51s-1.28-0.26-2.05-0.77s-1.54-1.03-2.57-1.8c-1.03-0.51-2.31-1.03-4.11-1.8
		c-1.54-0.51-3.6-0.77-6.16-0.77c-3.08,0-5.65,0.51-8.22,1.54c-2.57,1.03-4.62,2.57-6.42,4.37s-3.08,4.11-4.11,6.93
		c-1.03,2.83-1.54,5.65-1.54,9.25s0.51,6.68,1.54,9.25c1.03,2.83,2.31,5.14,4.11,6.93c1.8,1.8,3.6,3.34,5.91,4.37
		c2.31,1.03,4.88,1.54,7.45,1.54c1.54,0,3.08,0,4.37-0.26c1.28-0.26,2.57-0.51,3.6-0.77c1.03-0.26,2.05-0.77,3.08-1.54
		c1.03-0.51,2.05-1.28,2.83-2.05c0.26-0.26,0.51-0.51,0.77-0.51s0.77-0.26,1.03-0.26c0.51,0,1.28,0.26,1.54,0.77l4.62,4.88
		c-2.57,3.08-5.65,5.65-9.25,7.19c-1.03,0.51-2.05,0.77-3.34,1.28c-0.26,0-0.51,0.26-1.03,0.26h69.08c0.51-3.08,1.03-6.16,1.28-9.5
		c0.26-3.85,0.51-7.7,0.51-11.81c0-2.05,0-3.85-0.26-5.91c0.51-0.51,1.28-1.03,1.8-1.28c0.26-0.26,1.54-0.77,3.34-2.05
		c1.54-0.77,3.34-1.8,5.14-2.83c2.05-1.28,4.37-2.31,4.88-2.83c4.11-2.83,6.93-6.93,8.47-12.07c0.51-1.54,0.77-3.34,0.77-4.11
		s-0.26-2.05-0.51-2.57c-0.26-0.26-0.77-0.51-1.28-0.77h-0.51l-0.26,0.77c-0.26,0.51-0.26,1.28-0.51,1.8
		c-1.03,3.85-2.83,6.16-6.68,7.96c-2.31,1.28-5.14,1.8-7.45,2.05c-0.51,0-1.28,0-1.8,0c-3.08-0.26-5.39-1.54-6.68-4.11
		s-2.05-7.7-1.28-11.56c0.26-1.54,0.51-2.05,0.77-2.83c0.51-1.28,2.05-2.31,3.34-2.57c1.03-0.26,2.82,0,3.85,0.51
		c1.03,0.51,2.05,2.05,2.57,3.6c0.26,0.77,0.77,1.54,1.28,2.05c0.26,0.26,0.51,0.26,0.77,0.51c1.28,0.51,2.82,0.26,6.42-1.54
		l2.05-1.03h0.77c0.77,0,0.77,0,1.54,0.51c1.54,0.77,1.54,0.77,1.54,0.51c0,0,0-0.26,0-0.51c0-0.51,0-0.51-0.51-0.77
		c-1.54-1.28-1.8-1.54-2.05-2.31c-0.51-1.03-0.51-2.31-0.26-3.08c0.26-0.51,0.51-0.51,1.03-1.03c0.77-0.51,1.03-1.03,1.28-2.57
		c0-1.03,0-1.54-0.26-2.31c-0.26-1.03-0.77-1.54-2.05-3.34c-1.03-1.03-1.03-1.54-1.03-2.31c0-1.03,0.51-2.05,1.28-3.08
		c1.28-1.28,1.54-2.31,1.54-3.85c0-1.03,0-1.28-0.77-2.57c-0.26-0.26-0.51-1.03-0.51-1.03c-0.26-1.03,0-2.31,0.51-3.08
		c0.51-0.51,2.57-1.28,4.62-1.8c3.34-0.77,4.37-2.31,4.62-5.39c0-1.03,0-1.28-0.51-1.54c-0.26,0-0.26,0-0.77,0
		c-1.8,1.03-2.57,1.28-5.65,1.8c-3.85,0.51-5.65,1.28-9.76,3.6c-1.28,0.77-2.31,1.28-3.08,1.54c-1.28,0.77-2.05,1.03-2.83,1.03
		c-1.54,0.26-2.83-0.51-4.11-1.8c-0.51-0.77-1.28-1.54-1.8-1.54c-0.51-0.26-1.28-0.26-1.54-0.26c-0.26,0.26-0.77,0.77-0.77,1.54
		c-0.26,1.03-0.26,1.28,0.51,2.05c0.26,0.26,1.03,0.77,1.8,1.28c1.54,1.03,2.31,1.54,3.34,2.83c1.28,1.54,2.05,1.54,3.85,1.8
		c0.51,0,1.03,0,1.54,0.26c1.28,0.26,2.82,0.51,3.08,0.77c0.26,0,0.26,0.26,0.51,0.51c1.03,1.54-0.26,4.37-2.83,6.93
		c-0.26,0.26-0.51,0.51-0.51,0.51c-1.28,1.03-2.57,2.05-4.11,2.57c-1.28,0.51-1.54,0.51-3.08,0.51c-2.31,0-2.83,0.26-4.62,1.54
		c-0.51,0.26-1.54,0.77-1.8,1.03c-0.77,0.51-2.31,1.03-3.08,1.03c-1.28,0.26-2.31-0.26-3.6-1.03c-0.26-0.26-0.51-0.51-1.03-1.03
		c-1.28-1.8-3.08-2.31-5.65-2.83c-0.51,0-1.54-0.26-1.8-0.26c-0.51,0-4.88-1.54-9.76-3.34c-16.18-5.39-15.67-5.39-21.06-7.45
		c-5.39-2.31-6.93-3.34-8.47-5.39c-1.03-1.28-1.54-2.57-2.05-5.14c-0.77-3.34-1.03-5.65-1.03-8.22c0-2.31,0.26-3.6,0.77-4.11
		c0.77-0.51,1.28-0.51,2.83,0c1.03,0.51,1.03,0.51,1.8,0.51s0.77,0,1.28-0.26c1.03-0.51,1.54-0.51,4.11-0.51h2.57l-0.26-0.26
		c0-0.26-1.28-1.54-2.83-3.34c-1.28-1.54-2.83-3.34-3.34-3.85c-1.03-1.28-1.03-1.28-2.31-1.03c-1.28,0-2.57,0-3.85,0
		c-1.8-0.26-5.65-1.03-5.65-1.03c-0.26-0.26-0.51-0.51-0.51-1.03s0-0.51,1.8-1.03c1.28-0.51,1.54-0.51,2.05-1.03
		s0.77-1.28,1.03-2.82c0-1.8-0.26-3.08-1.8-5.65c-0.51-0.77-0.77-1.54-1.03-2.05c-0.51-1.03-0.77-1.8-1.03-3.08
		c-0.26-1.28-0.26-1.28,0-1.54c0.77-0.51,3.08-0.51,4.37-0.26c1.03,0.26,2.57,0.51,3.34,0.51c0.51,0,0.77,0,1.28-0.51
		c0.26-0.26,0.77-0.51,1.28-1.03c0.26-0.26,1.03-0.77,1.54-1.03c1.28-0.77,2.83-1.8,4.62-3.34c0.77-0.77,2.31-1.8,3.6-2.82
		c3.34-2.57,5.39-4.11,6.68-5.39c4.11-3.34,7.45-7.19,10.27-10.79c1.03-1.28,1.28-1.8,1.8-3.6c0.51-1.54,1.03-2.57,1.8-3.6
		c0.26-0.51,1.28-1.54,2.57-2.82c1.28-1.03,2.31-2.31,2.31-2.57c0.51-0.77,1.03-1.8,1.28-2.57c0.26-1.54,0.26-4.88-0.26-5.91
		c-0.26-0.51-0.51-0.77-1.28-1.03c-0.51,0-1.54,0-1.8,0c-0.51,0.26-1.28,0.77-1.8,1.54c-0.77,0.77-1.28,1.54-1.8,2.82
		c-0.26,0.51-0.51,1.54-0.77,1.8c-0.51,0.77-1.54,2.05-2.57,2.82c-0.51,0.26-1.28,1.28-2.05,1.8c-2.05,1.8-2.31,1.8-3.34,2.57
		c-2.31,1.54-2.83,2.05-2.31,2.82c0,0,0.51,0.51,1.03,1.03c1.03,1.03,1.03,1.28,0.51,1.8c-1.03,1.03-1.54,1.03-5.39-0.26
		c-2.31-0.77-2.83-0.77-4.11,0.26c-1.03,0.77-1.54,1.03-3.34,1.8l-1.54,0.77h-1.28c-1.54,0-1.8,0.26-1.8,0.51
		c0,0,0.26,0.51,0.26,0.77c0.51,0.77,0.51,1.03,0.26,1.28c-0.51,0.77-4.11,1.03-6.42,0.77c-0.51,0-1.28,0-2.05,0
		c-1.28,0-2.05,0.26-3.34,1.03c-1.8,1.03-3.34,1.54-4.37,1.28c-0.51,0-0.77,0-1.03-0.51c-0.26-0.26-0.51-0.77-0.77-1.28
		c-0.77-2.05-1.54-2.82-2.57-2.82c-1.28,0-2.57,1.54-3.08,3.08c-0.26,0.77-0.26,1.28,0,1.54c0,0,1.03,0.51,2.05,1.28
		c1.03,0.51,2.31,1.28,2.57,1.54c1.28,0.77,2.05,1.28,3.85,1.8c1.28,0.26,2.31,0.77,2.83,1.03l0.26,0.26l-0.26,0.26
		c0,0.26-0.26,0.51-0.51,0.51l-0.26,0.26h-1.54c-1.8,0-2.57-0.26-3.6-0.77c-0.77-0.26-1.28-0.51-2.05-1.28
		c-0.51-0.51-1.28-0.77-1.8-0.77s-1.03,0-2.05,0.51c-1.28,0.51-2.31,0.77-5.14,1.03c-2.05,0.26-2.31,0.26-2.57,1.28
		c0,0.51,0,1.28,0.26,1.8c0.26,0.26,0.51,0.77,1.03,1.03c0.51,0.51,2.57,2.05,2.82,2.31c0.26,0.51,0,1.8-0.26,3.08
		c0,0,0,0.26-0.26,0.26c-0.26,0.77-1.03,1.54-1.54,2.05s-0.77,1.03-0.77,1.54s0.26,1.03,0.51,1.54c0.51,0.51,0.77,0.77,2.05,0.51
		c1.28,0,2.31-0.51,4.37-1.28c1.28-0.51,2.57-1.03,3.6-1.28c2.05-0.26,3.6,0.26,4.88,1.54c0.51,0.51,1.03,1.03,1.54,1.8
		c0.77,1.28,1.28,3.08,1.54,4.88v1.03l-0.26,0.26c-0.26,0.26-0.77,1.03-1.54,1.8c-2.05,2.05-3.85,4.11-4.37,4.88
		c-1.28,1.8-1.54,1.8-3.34,2.05c-1.54,0.26-2.05,0.26-2.82,0.77c-0.51,0.26-1.03,1.03-1.28,1.54c0,0.26,0,0.26,0.26,0.77
		c0.26,0.26,0.51,0.77,0.77,0.77c0.51,0.51,0.51,0.77,0.51,1.28c0,1.28-1.03,2.31-2.05,3.08c-1.28,0.77-3.85,1.54-5.91,2.05
		c-1.54,0.26-2.82,0.51-4.62,0.26c-2.57,0-4.62-0.51-7.19-1.54c-0.77-0.51-3.08-1.54-4.11-2.05c-0.51-0.51-1.54-1.28-1.8-1.8
		c-0.26-0.77-0.26-1.28,0.51-1.8c0.51-0.26,1.03-0.26,2.05,0.26c1.28,0.51,2.05,0.77,3.6,1.03c2.57,0.26,5.14,0.26,7.19-0.26
		c1.54-0.26,1.8-0.51,2.05-2.05c0.51-1.28,1.28-3.34,2.57-5.14c1.03-1.8,1.03-2.05,1.03-3.6c0-1.03,0-1.28-0.26-1.54
		c-0.26-0.51-0.77-0.51-2.05-0.51c-1.54,0-2.57,0.26-5.14,1.03c-2.31,0.51-3.34,0.77-5.39,1.03c-3.34,0.26-6.93-0.26-10.27-1.28
		c-2.05-0.51-3.08-1.28-4.37-2.82c-1.8-1.8-3.34-4.11-4.11-6.16c-0.51-1.54-0.77-1.8-1.28-2.57c-0.77-1.28-2.05-2.05-3.34-2.82
		c-0.26-0.26-1.28-0.51-2.05-0.77c-3.6-1.28-4.88-1.8-6.16-2.82c-1.54-1.03-2.82-2.57-4.11-4.37c-0.26-0.51-0.51-0.77-0.51-1.03
		c-0.26-0.26-0.26-0.77-0.51-1.28c-0.26-0.77-0.51-1.28-1.03-1.28c-0.51,0-0.51,0-1.03,0.77c-0.26,0.51-0.51,1.28-0.51,1.8
		s0,1.03,0.26,1.54c0.26,0.77,0.51,1.54,1.28,2.31s1.03,1.28,1.03,2.05c0,1.28-1.8,4.62-3.85,6.68c-0.77,0.77-1.28,1.03-2.05,1.03
		s-1.28-0.26-2.05-1.03c-0.77-0.77-1.28-1.03-2.82-0.51c-1.03,0.26-1.54,0.26-2.31-0.26c-1.03-0.77-2.05-5.65-2.05-10.02
		c0-0.26,0-0.51,0-0.77c0-3.08,0.51-5.39,1.28-7.19c0.26-0.51,0.51-1.03,1.03-1.54c0.51-0.51,1.03-0.77,1.8-1.28
		c1.28-0.51,2.57-1.54,2.82-1.8c0.77-0.77,0.77-1.54,0.51-2.82c-0.26-0.51-0.26-1.03-0.51-1.28c0-0.77,0-2.31,0-3.34
		c0.26-1.28,0.51-1.54,1.8-2.57c0.26-0.26,0.51-0.51,0.77-1.03l0.26-0.51v-2.57v-2.57l0.26-0.51c0.26-0.77,1.03-1.28,2.31-1.8
		c0.77-0.51,1.8-0.77,2.82-0.77c0.51,0,1.03-0.26,1.03-0.26c0.26-0.26,0.77-0.51,1.03-1.03c0.51-1.03,1.28-1.8,2.31-2.82
		c1.28-1.03,2.05-1.28,3.34-1.03c0.26,0,1.28,0.26,2.05,0.51c1.28,0.51,1.54,0.51,2.31,0.51s0.77,0,1.28-0.26
		c0.77-0.51,0.77-1.03,1.54-5.39c0.26-1.28,0.26-2.31,0.51-2.57c0-0.51,0.77-1.03,1.8-1.54c0.51-0.26,1.28-0.51,1.54-0.51
		c0.77-0.26,2.05,0,3.08,0.26c1.54,0.51,2.82,0.51,4.11,0c1.54-0.51,2.31-0.77,2.82-0.51c0.51,0.51,0.77,1.03,1.28,3.6
		c0.51,2.82,0.77,3.85,1.54,4.88c1.28,2.05,1.8,3.85,1.28,7.96c-0.26,3.6-0.26,3.6,0,4.11c0.51,1.03,1.54,1.8,3.85,3.08
		c0.77,0.51,2.82,1.8,4.37,3.08c1.8,1.28,3.85,1.8,5.65,1.03c0.51-0.26,1.54-0.77,2.82-1.8c2.05-1.54,2.31-1.8,4.62-1.8
		c1.03,0,2.31,0,3.08-0.26c1.28,0,1.54,0,2.31-0.51c1.28-0.51,1.8-1.03,2.82-1.8c1.8-1.54,3.08-2.31,6.42-3.34
		c2.83-0.77,4.37-2.05,5.91-3.85c1.03-1.54,1.54-2.05,5.39-4.37c1.03-0.51,2.05-1.28,2.57-1.54c1.54-1.03,3.6-3.6,4.11-4.88
		c0.26-0.51,0.26-1.28,0-1.8c-0.26-0.51-1.03-1.03-2.57-2.05c-0.77-0.51-1.54-0.77-1.54-0.77c0-0.26,0.26-0.77,0.51-0.77
		c0.51-0.51,1.54-0.77,3.6-1.03c0.26,0,0.51-0.26,0.77-0.26c0.26-0.26,0.26-0.26,0.26-1.28c0-0.51,0-1.28-0.26-1.8
		c0-0.51-0.26-1.28-0.26-1.8c0-0.77,0-1.03,0.26-1.8c0.26-1.03,0.51-1.54,2.31-3.85c1.54-2.05,2.05-3.08,2.31-3.85
		c0.26-1.03,0-3.08-0.26-3.85c-0.51-0.77-1.28-1.03-1.8-0.77c-0.26,0.26-0.51,0.51-1.03,2.31c-0.51,1.8-1.03,2.82-1.8,4.11
		c-0.51,0.77-0.51,1.03-1.28,1.54c-1.03,1.03-1.8,1.28-2.83,0.77c-1.28-0.51-2.05-0.51-4.88,0c-1.03,0.26-1.8,0.26-2.05,0.26
		c-1.03,0-2.05-0.51-3.6-1.54c-2.31-1.8-3.34-2.82-4.62-4.62c-0.51-1.03-1.03-1.54-1.54-1.8c-0.51-0.26-1.28-0.51-3.85-0.77
		c-2.31-0.51-2.57-0.51-4.11-0.51c-1.8,0-2.57,0-4.88,0.77c-1.28,0.26-2.05,0.51-3.6,1.54c-3.34,1.8-4.88,2.31-6.68,2.31
		s-2.57-1.28-2.57-4.11c0-1.28,0-1.54,0.26-2.05c0.51-1.54,1.28-2.82,2.57-4.11c1.8-1.54,3.85-2.82,6.93-3.6
		c1.28-0.51,1.54-0.51,3.85-0.77c1.8-0.26,3.85-0.26,4.88-0.26c0.26,0,1.28,0.26,2.31,0.26c1.54,0.26,2.05,0.26,4.11,0.26
		c3.08,0,3.6,0,4.11-1.28c0.77-1.54,2.31-3.34,3.6-4.37c1.54-1.03,3.08-1.54,6.16-2.05c2.57-0.26,4.37-0.51,6.42-1.54
		c2.83-1.03,4.37-1.03,7.7,0.26c3.34,1.03,4.62,1.28,7.45,0.77c0.77-0.26,2.05-0.26,2.57-0.51c1.28-0.26,2.82-0.26,3.6,0
		c1.28,0.26,2.05,1.03,3.6,2.82c1.28,1.54,1.28,1.54,1.03,3.08c-0.26,1.28-0.26,1.8-0.77,2.82c-0.51,1.03-1.28,2.05-2.31,2.57
		c-0.77,0.26-1.03,0.51-3.08,1.03c-2.31,0.51-2.83,0.77-2.83,2.05c0,1.03,0.26,1.8,1.28,2.31c0.77,0.26,1.28,0.51,2.83,0.51
		c3.34,0.26,3.85,0.26,4.88,1.54c0.77,0.77,1.03,1.28,1.03,1.8c0,0.51-0.26,1.28-0.77,2.31c-0.51,1.03-0.51,1.03-1.54,2.05
		c-0.51,0.51-1.03,1.28-1.28,1.28c0,0.26,0,0.51,0.26,1.03c0.51,0.51,1.03,2.05,1.28,2.82c0.26,0.77,0.26,1.28,0.51,3.34
		c0.26,1.54,0.51,2.05,2.57,3.08c2.82,1.28,5.39,2.82,9.76,5.65c2.83,1.8,3.6,2.57,4.11,3.34c0.26,0.77,0.26,1.28,0,1.8
		c-0.51,1.03-1.54,1.03-3.34,0c-2.82-1.28-3.6-1.54-4.11-1.54c-1.8-0.26-2.83,0.77-2.83,2.57c0,0.51,0,0.77,0.26,1.03
		c0.51,1.03,1.03,2.31,1.28,4.11c0.51,3.34,1.03,4.62,3.34,7.96c4.62,6.93,6.93,10.27,8.22,12.07c1.54,2.82,2.82,5.65,3.6,8.22
		c0.51,1.54,0.51,2.31,0.77,4.88c0,1.28,0.26,4.11,0.51,6.68c0.51,6.42,0.77,8.73,1.03,9.25c0.51,1.03,1.28,2.57,3.08,5.14
		c1.28,1.54,2.83,3.6,5.14,6.16c2.31,2.83,3.08,3.6,4.11,4.11c0.77,0.51,1.03,0.26,0.77-0.26c0-0.26-0.51-0.77-1.03-1.28
		c-1.54-1.8-2.05-2.31-2.05-3.08c-0.26-1.28,1.8-2.31,4.11-2.05h0.26c8.73,3.34,17.46,7.19,25.68,11.3c0.26,0,0.51,0.26,0.51,0.26
		V36.08L12.83,35.82L12.83,35.82z M229.59,224.33c0.26-0.77,2.31-2.57,3.6-3.34l0,0c1.28-0.77,1.8-0.77,2.57-0.51
		c0.51,0.26,0.77,0.51,1.03,1.03c0.51,1.03,0.51,1.54-0.77,2.57c-1.28,1.28-2.05,1.8-3.08,2.05c-0.51,0.26-1.03,0.26-1.8,0.26
		s-0.77,0-1.03-0.26C229.33,226.12,229.07,225.1,229.59,224.33z M59.06,215.6c-0.26,0.26-0.77,0.51-1.28,0.51c0,0-0.26,0-0.51-0.26
		c-1.54-0.77-2.05-1.03-3.6-1.03c-1.28,0-2.57,0.26-5.91,1.03c-1.03,0.26-2.05,0.26-2.05,0.26c-0.26,0-0.77-0.51-1.03-1.03
		c-0.51-1.03-0.51-1.54,0.51-2.05c1.54-0.77,2.31-1.03,4.11-1.03s2.05,0,4.11-1.8l1.03-1.03h0.51c0.26,0,0.77,0.26,1.03,0.26
		c1.03,0.51,2.05,1.54,2.57,2.57c0.51,0.77,0.51,1.54,0.51,2.31C59.32,215.08,59.32,215.08,59.06,215.6z M49.82,208.4
		c0-0.26,0.77-1.28,1.03-1.54c0.26,0,1.03-0.26,1.28-0.26c0,0,0.26,0,0.26,0.26c0.26,0.26,0.51,1.03,0.77,1.54
		c0.26,1.03-0.26,1.54-1.54,2.05c-0.51,0.26-0.77,0.26-1.03,0.26C50.07,210.2,49.56,209.17,49.82,208.4z M62.66,219.19
		c-1.54,0.77-2.57,0-1.8-1.03c0-0.26,0.26-0.51,0.51-1.03c1.03-1.8,2.31-3.08,3.08-2.31c0.26,0.26,0.26,0.26,0.26,0.77
		C64.71,217.14,63.94,218.42,62.66,219.19z M87.05,201.73c-0.51,0-1.03-0.26-1.28-0.26c-0.51-0.26-1.03-1.03-1.03-2.05
		c0,0,0-0.26,0.26-0.51c0.26-0.26,0.26-0.26,2.05-0.26c1.03,0,2.31,0.26,2.82,0.26c2.57,0.26,4.88,1.03,6.16,2.05
		c0.77,0.51,1.28,1.03,1.8,1.8c0.51,1.03,0.51,1.8-0.26,2.57c-0.77,0.77-1.28,0.77-2.31,0.51c-1.28-0.26-2.31-1.03-4.11-2.57
		C89.62,202.24,88.85,201.98,87.05,201.73z M105.03,236.91c-0.51,0.77-0.77,1.54-1.54,2.05c-0.51,0.51-1.28,1.03-2.31,1.54
		c-1.03,0.51-1.8,0.51-2.57,0.51c-1.03,0-1.8-0.26-2.57-0.51c-0.77-0.26-1.54-0.77-2.05-1.54c-0.51-0.51-1.03-1.28-1.54-2.05
		c-0.26-0.77-0.51-1.8-0.51-2.57c0-1.03,0.26-1.8,0.51-2.57c0.26-0.77,0.77-1.54,1.54-2.05c0.51-0.51,1.28-1.03,2.05-1.54
		c0.77-0.51,1.8-0.51,2.57-0.51c1.03,0,1.8,0.26,2.57,0.51c0.77,0.26,1.54,0.77,2.31,1.54c0.51,0.51,1.03,1.28,1.54,2.05
		c0.26,0.77,0.51,1.8,0.51,2.57C105.55,235.11,105.29,236.14,105.03,236.91z M104.77,160.89c0.26-0.26,0.26-0.26,0.51-0.26
		c0.26-0.26,0.77-0.26,1.28,0c0.51,0.26,1.03,0.77,1.03,1.54c0,0.51,0,0.77-0.51,1.03c-0.77,0.51-1.28,0.26-1.8-0.26
		C104.52,161.92,104.26,161.15,104.77,160.89z M100.67,171.94c0-0.26,0.26-0.26,0.26-0.26c0.26,0,1.03,0,1.54,0
		c1.28,0.26,1.8,1.8,1.28,2.57c-0.51,0.51-1.8,0.77-2.31,0.51c-0.26-0.26-0.77-1.28-1.03-1.8
		C100.67,172.19,100.67,172.19,100.67,171.94z M99.38,165.52c0,0.51-0.26,1.03-0.51,1.03c-0.26,0.26-1.54,0.51-2.05,0.51
		c-0.51,0-1.03-0.51-1.28-1.03c-0.51-0.77-0.51-1.28-0.26-1.8c0.26-0.26,0.77-0.26,1.28-0.51c0,0,0.51,0,1.03,0.26
		c1.03,0.26,1.03,0.26,1.28,0.51C99.38,164.75,99.38,165,99.38,165.52z M92.45,157.04c0.77-0.77,2.05-1.03,3.34-1.03
		c1.8,0.26,2.57,0.77,2.57,1.8c0,0.51-0.26,1.03-0.77,1.54c-1.03,1.03-2.82,1.28-4.37,0.77c-0.77-0.26-1.03-0.51-1.28-1.03
		C91.93,158.32,91.93,157.81,92.45,157.04z M78.58,179.9c3.08,0,3.34,0,3.6,0c0.26,0,0.26-0.26,0.26-0.26s0.51-1.54,0.77-3.08
		c1.28-4.37,1.28-4.62,1.8-4.88c0.51-0.26,1.03-0.26,1.8,0c0.77,0.26,1.03,0.51,1.28,1.54c0.26,1.03,0.51,1.54,0,1.8
		c-0.26,0-0.51,0.26-0.51,0.26c-0.26,0-1.28,0.77-1.28,1.03c0,0,0.26,0.26,0.51,0.51c1.8,0.77,3.08,1.03,7.19,0.26
		c1.8-0.26,2.82-0.26,5.65,0c2.31,0.26,3.34,0.26,4.62-0.26c1.03-0.26,2.05-0.26,2.82,0c0.51,0.26,1.03,0.51,1.54,1.54
		c1.54,2.05,3.34,2.83,6.42,3.08c2.05,0.26,3.85,0.51,4.11,0.77s0.51,0.77,0.51,1.28s-0.51,1.28-1.28,1.54
		c-2.82,1.8-6.16,2.83-8.99,2.57c-1.03,0-2.57-0.51-3.08-0.77s-2.57-1.54-3.6-2.05c-2.31-1.54-4.11-2.31-6.42-2.31
		c-1.8,0-2.31,0.26-7.19,1.54c-3.34,1.03-3.34,1.03-5.14,0.26c-1.28-0.51-2.31-0.51-3.34,0c-3.34,1.54-4.62,5.39-3.34,9.76
		c0.77,2.83,2.05,5.65,3.6,7.45c0.77,0.77,1.03,1.8,0.51,2.31c-0.51,0.51-1.28,0.51-2.57,0s-4.37-2.05-5.65-2.83
		c-2.57-1.54-3.08-1.8-4.62-3.6c-0.77-0.77-2.05-2.31-2.82-3.08c-0.77-0.77-1.54-1.54-1.8-2.05c-1.03-1.03-2.57-2.05-4.11-2.31
		c-1.28-0.26-4.11-0.26-4.62,0.26c-0.51,0.26-1.28,1.28-1.28,1.8c0,0.26,0,0.51,0.26,0.51c0.26,0.26,2.05,1.54,2.82,2.05
		c1.03,0.77,1.03,0.77,1.03,1.8c0,1.03,0,1.03-0.26,1.28c-0.51,0.51-0.51,0.51-4.62,0.51c-4.11,0-4.37,0-4.88,0.26
		c-0.51,0.51-0.51,0.77-0.77,1.8c0,0.77,0,1.03-0.26,1.28c-0.26,0.26-0.26,0.26-0.77,0.26c-0.51,0-0.51,0-1.03-0.26
		c-0.26-0.26-0.26-0.26-0.26-0.77c0-0.77,0.26-1.8,0.77-2.83c0.77-1.54,1.03-2.05,1.28-3.6c0.51-2.05,1.28-3.34,2.82-4.88
		c1.28-1.28,2.82-2.31,4.11-3.08c1.28-0.77,2.57-1.03,4.37-1.28c0.51,0,1.54-0.26,2.05-0.26c1.03-0.26,2.57-0.77,3.34-1.28
		c0.51-0.26,2.05-1.28,4.11-2.05c2.05-1.03,3.34-1.54,5.39-1.54C74.73,179.9,76.52,179.9,78.58,179.9z M76.01,157.81
		c0.26,0.77,0.26,1.03,0.26,1.28c0,0.26-0.26,0.51-0.51,0.77c-0.26,0.26-0.51,0.51-0.77,0.51c-0.51,0-0.51,0-1.54-0.51
		c-1.28-0.51-1.54-0.77-2.05-0.26c-0.26,0.51-0.51,1.28-0.51,2.05s0.26,2.57,0.51,3.08c0.26,0.77,1.03,1.8,2.57,3.34
		c1.54,1.8,2.05,2.31,2.57,3.34c0.51,1.03,0.77,2.31,0.77,3.08c-0.26,0.77-2.31,1.8-3.85,1.8c-2.05,0-3.6-1.03-5.65-3.6
		c-1.28-1.54-2.31-3.85-3.08-5.91c-0.77-2.05-0.77-3.08,0.26-4.37c0.77-1.28,1.03-2.05,0.77-2.82c0-0.26-0.51-0.77-0.77-1.28
		c-0.77-1.03-1.03-1.54-1.03-2.31s0.26-1.28,1.28-2.57c0.77-1.28,1.28-1.8,2.31-2.82c1.03-1.03,4.11-3.85,4.37-4.11
		c0.26-0.26,0.77,0,1.28,0c0.51,0.26,0.77,0.51,0.77,0.77c0.26,0.51,0.26,2.31,0.26,3.85c0,2.31,0.26,3.34,1.28,5.14
		C75.24,156.27,75.75,157.04,76.01,157.81z M140.47,85.9c0.26-0.51,1.28-1.54,2.05-1.8c0.77-0.51,1.28-0.51,3.34-0.51
		s2.57,0,3.85-0.51c0.51-0.26,1.03-0.51,1.28-0.51c1.28-0.77,1.28-0.77,1.8-0.77c0.26,0,0.51,0,0.77,0.26
		c0.51,0.26,0.51,0.51,0.77,1.03c0.26,0.77,0.26,1.8-0.26,2.05c-0.26,0.26-0.77,0.26-3.85,0.77c-3.34,0.51-4.11,0.77-5.39,2.05
		c-0.26,0.26-0.77,0.51-1.03,0.77c-0.51,0.26-0.77,0.26-1.54,0.26c-1.03,0-1.28,0-1.54-0.77C140.22,86.93,140.22,86.42,140.47,85.9z
		 M135.08,103.88c1.8-0.26,2.82-0.51,4.62-1.54c2.05-1.03,2.57-1.28,5.65-1.8c4.88-1.03,7.96-2.05,10.53-3.6
		c1.03-0.51,1.28-0.51,2.83-0.51c0.51,0,1.03,0.26,1.28,0.26c1.03,0.51,1.8,1.54,1.8,2.57c0,0.51,0,0.51-0.26,0.77
		c-0.51,0.51-0.77,0.51-1.54,0.51c-0.51,0-0.77,0-1.03,0.26c-0.26,0.26-0.26,0.26-0.26,0.26c0,0.26-0.26,0.51-1.54,0.77
		c-1.54,0.51-2.82,0.77-4.11,1.03c-0.51,0-1.03,0-1.28,0.26c-0.51,0.26-1.28,0.77-2.05,1.54c-0.51,0.51-1.03,0.77-1.28,1.03
		c-0.51,0.26-0.51,0.26-1.54,0.26c-1.03,0-1.03,0-2.05-0.26c-1.28-0.51-3.08-1.03-3.34-1.03c0,0-0.51,0.26-1.03,0.51
		c-2.05,1.28-4.37,2.05-6.68,2.31c-1.03,0-1.03,0-1.28-0.26c-0.26-0.26-0.51-0.77-0.51-1.28
		C132.25,104.91,133.28,104.14,135.08,103.88z M132,80c0.26,0.26,0.51,1.54,0.51,1.8s-0.26,0.51-0.51,0.77
		c-0.26,0.26-0.77,0.77-1.28,1.03c-1.03,1.03-1.54,2.31-1.28,3.34c0.26,0.51,1.03,1.54,1.8,2.31c1.03,0.77,1.28,1.54,1.28,2.57
		c0,1.03-0.26,1.54-0.77,1.8c-0.26,0.26-0.51,0.26-1.28,0.26c-1.28,0-2.31-0.51-3.08-1.54c-0.51-0.51-0.77-1.28-0.77-2.57
		s-0.26-1.8-0.51-2.05c-0.51-0.51-1.03-0.51-2.05,0c-0.51,0.26-1.54,0.26-2.82,0c-0.51,0-1.54,0-2.82,0c-2.82,0-2.82,0-3.08,1.28
		c-0.51,2.05-2.05,3.85-3.85,4.88c-1.03,0.51-3.08,1.28-3.6,1.03c-0.51-0.26-1.03-1.54-0.51-2.31c0.26-0.51,0.51-1.03,1.03-1.28
		c0.51-0.26,1.03-0.51,2.82-0.77c0.77-0.26,1.54-0.26,1.54-0.51c0.51-0.51,0.51-1.03-0.26-1.8c-0.51-0.77-0.77-0.77-0.77-1.28
		c0-0.51,0.51-1.28,1.03-1.8c0.77-0.77,1.8-1.28,3.34-1.54c2.05-0.51,3.34-1.03,4.37-1.8c0.26-0.26,0.77-0.51,1.03-0.51
		c0.51-0.26,1.8-0.26,3.08-0.26c1.03,0,3.08,0,4.37-0.26c0.51,0,1.03-0.26,1.54-0.26C131.23,80,131.74,80,132,80z M218.54,109.02
		c-0.51,1.03-2.05,1.03-3.34,0c-0.26-0.26-0.26-0.26-0.26-0.51s0.26-0.77,0.51-1.03c0.26-0.26,0.26-0.26,1.03-0.26
		c0.51,0,1.03,0,1.28,0.26C218.54,107.73,218.8,108.25,218.54,109.02z M220.09,154.73c-1.28-2.57-2.31-3.34-5.39-3.85
		c-1.03-0.26-4.11-0.26-5.39,0c-1.8,0.26-4.11,0.77-5.65,1.28c-2.05,0.77-4.62,2.31-6.68,3.85c-1.8,1.28-8.22,6.68-11.3,9.25
		c-2.05,1.8-2.57,2.05-3.6,2.83c-2.05,1.03-4.11,1.28-6.16,0.77c-0.77-0.26-1.03-0.51-1.54-1.28c-0.26-0.51-0.26-0.77-0.26-1.54
		c0-0.51,0-1.8,0.26-2.57c0.26-2.82,0.26-3.6-0.51-4.37c-0.51-0.51-1.54-1.03-2.31-0.77c-0.26,0-0.77,0.26-1.28,0.51
		c-1.03,0.51-1.54,0.51-1.8,0.26c-0.26,0-0.51-0.26-0.77-0.51c-0.77-0.51-1.28-0.77-2.82-0.77c-1.28,0-1.8,0-2.05,0.51
		c0,0.26-0.26,0.51-0.26,0.77c0,0.51,0,0.51,0.51,1.54c0.26,0.26,0.26,0.77,0.51,1.28c0,0.26,0.26,0.26,0.26,0.51
		c0.51,1.54,1.03,2.05,3.6,5.39c1.03,1.28,2.57,3.34,3.34,4.11s1.54,1.8,1.54,2.05c0.77,0.51,1.8,1.03,2.31,0.77
		c0,0,0.51-0.51,1.03-0.77c0.51-0.51,1.03-0.77,1.03-1.03c0.51-0.26,1.03-0.26,1.54,0c0,0,0,0,0,0.26c0,0,0,0,0.26,0
		c0.26,0.51,0.26,0.77,0,1.8c-0.51,1.28-0.51,2.05-0.51,3.34c0,1.54,0.26,1.8,1.03,2.05c1.03,0.77,2.83,1.28,4.11,1.28
		c0.77,0,2.31,0,4.11-0.26c1.03,0,2.05-0.26,3.08-0.51c2.83-0.51,3.34-0.26,5.39,0.51c1.8,0.77,2.31,1.03,3.85,0.51
		c3.08-0.51,5.91-2.05,8.22-4.37c1.03-1.03,1.03-1.03,1.03-3.85c0-2.83,0-2.57,1.03-3.08c3.08-1.03,5.91-3.08,8.22-5.14
		c1.28-1.28,2.05-2.31,2.57-3.08c0.51-1.03,0.51-1.54,0.77-2.57C221.37,158.07,220.86,156.53,220.09,154.73z M191.58,167.06
		c-3.34,2.57-3.6,2.83-4.37,2.83c-0.51,0-1.54-0.26-1.8-0.51c0,0,0-0.26,0-0.51v-0.51l1.28-1.54c1.8-1.8,4.62-4.62,5.39-5.14
		c0.26-0.26,1.03-0.77,1.8-1.03c1.03-0.51,1.28-0.51,1.54-0.51s0.51,0.26,0.77,0.26c1.03,0.51,1.03,2.05,0,3.08
		c-0.26,0.26-0.77,0.51-1.28,1.03C194.92,164.49,193.12,165.77,191.58,167.06z M201.34,166.03c-0.26,0.51-1.28,1.54-3.08,3.08
		c-1.54,1.28-1.54,1.28-2.05,1.28c-0.26,0-0.77-0.51-1.03-0.77c0,0-0.26-0.26-0.26-0.51c0-0.26,0-0.51,1.28-1.8
		c0.77-0.77,1.8-1.8,2.31-2.31l1.03-1.03h0.51c0.77,0,0.77,0,1.03,0.26C201.59,165,201.59,165.52,201.34,166.03z M192.35,83.33
		c0-0.51-0.26-0.51-0.26-0.77c-0.26-0.26-0.51-0.26-0.77,0s-1.54,2.05-2.31,3.6c-0.51,1.03-1.03,2.31-1.28,3.34
		s-0.26,1.03,0.51,1.28c0.51,0.26,1.03,0.26,1.28,0.26c0.26-0.26,1.8-1.54,2.05-2.31C192.61,86.93,192.86,85.39,192.35,83.33z
		 M176.43,116.98c-0.26,0-0.51,0-0.77,0c-1.03,0.51-2.05,1.28-2.57,2.05c-0.26,0.26-0.26,0.51-0.26,1.03v0.51h0.26
		c0.26,0,0.51,0,1.8-1.03c1.8-1.54,1.8-1.54,1.8-2.05L176.43,116.98C176.94,116.98,176.43,116.98,176.43,116.98z M170.78,74.6
		c-0.77-0.77-1.54-1.28-2.05-0.77c-0.51,0.26-0.77,0.77-1.03,1.54c0,0.51,0,1.54,0,1.8c0,0.26,0.51,0.51,1.28,0.51s0.77,0,1.28-0.26
		c0.51-0.51,0.77-0.77,0.77-1.54C171.03,74.86,171.03,74.86,170.78,74.6z M149.97,124.17c0,0-0.26,0-0.51-0.26
		c-0.51,0-0.51,0-1.28,0.26c-1.03,0.51-2.82,1.54-3.6,2.05c-1.28,0.77-1.8,1.28-2.05,2.05c-0.51,1.28-0.51,2.05,0.51,2.05
		c0.26,0,0.51,0,2.05-1.28c3.85-2.57,4.11-2.82,4.88-4.11C150.23,124.94,150.23,124.42,149.97,124.17z M111.2,126.48
		c-0.26-2.05-1.54-4.37-3.6-6.42c-0.51-0.51-1.28-1.03-1.54-1.28c-1.28-0.77-2.82-1.28-3.34-0.77c0,0-0.26,0.26-0.51,0.51
		l-0.26,0.51l0.26,0.26c0,0,0.51,0.51,1.03,0.77c1.28,0.77,2.31,1.54,3.34,2.57c1.03,1.03,1.54,1.8,2.31,3.08s1.03,1.8,1.54,2.31
		C111.2,128.28,111.45,128.02,111.2,126.48z M107.86,132.13c-0.26-0.51-0.51-0.77-1.8-1.28c-2.82-1.03-4.62-1.8-6.16-2.57
		c-2.57-1.54-4.11-3.6-4.88-6.42c-0.51-1.54-0.77-2.82-0.77-5.14c0-1.28,0-2.05-0.26-2.05c-0.26-0.26-0.26-0.26-0.51,0
		c-0.26,0.26-0.51,0.77-1.03,2.31c-0.77,1.8-1.54,3.6-2.05,4.37c-1.03,1.28-1.03,1.54-1.28,2.31c-0.26,0.51-0.26,0.77-0.26,1.03
		s3.08,3.34,4.88,4.88c2.82,2.57,5.91,4.62,7.96,5.39c2.05,0.77,3.85,1.03,4.62,0.51C107.6,134.95,108.11,133.67,107.86,132.13z
		 M93.73,135.72c0-0.77,0-1.03-0.51-1.28c-0.51-0.51-2.05-0.77-2.57-0.26c-0.77,0.26-1.03,1.54-1.03,2.57
		c0.26,1.03,0.77,1.8,1.8,1.8c0.77,0,1.28-0.26,1.8-0.77C93.47,137.01,93.73,136.5,93.73,135.72z"/>
</g>
</svg>
